<?xml version="1.0" encoding="utf-8"?>
<!-- Generator: Adobe Illustrator 18.0.0, SVG Export Plug-In . SVG Version: 6.00 Build 0)  -->
<!DOCTYPE svg PUBLIC "-//W3C//DTD SVG 1.1//EN" "http://www.w3.org/Graphics/SVG/1.1/DTD/svg11.dtd">
<svg version="1.1" id="Layer_1" xmlns="http://www.w3.org/2000/svg" xmlns:xlink="http://www.w3.org/1999/xlink" x="0px" y="0px"
	 viewBox="0 0 79.7 197.1" enable-background="new 0 0 79.7 197.1" xml:space="preserve">
<g>
	<polygon fill="#303030" points="56.3,0 71.4,0 67.1,3.6 70.6,5.3 55.2,5.3 	"/>
	<g>
		<g>
			<g>
				<polygon fill="#303030" points="43.7,35.2 21,33.2 37.1,23.6 61.1,26.3 				"/>
			</g>
			<g>
				<polygon fill="#303030" points="45.4,52.1 54,53.4 44.5,63 20.7,63 				"/>
			</g>
		</g>
	</g>
	<g>
		<g>
			<g>
				<polygon fill="#303030" points="7.8,46.4 20.7,63 65,37.1 69.5,27.2 				"/>
			</g>
			<g>
				<polygon fill="#303030" points="44.5,63 74.9,42.7 67,55.4 				"/>
			</g>
			<g>
				<polygon fill="#303030" points="63.1,0 62.3,5.3 61.9,7.9 48.4,19.1 42.8,17.8 51.8,10.6 44.9,12.3 39.3,17.1 21,33.2 
					13.2,21.2 33.9,6.6 43.2,0 				"/>
			</g>
		</g>
	</g>
	<g>
		<g>
			<path fill="#303030" d="M39.8,91.9l37.8,10.6l2,6.7c0,0-19.5-0.3-20.2,18.2s7.6,37.4,7.6,37.4l-27.2,32.3V91.9z"/>
			<polygon fill="#303030" points="39.8,83.4 77.7,96.9 79.7,90.2 39.8,70.4 			"/>
			<polygon fill="#303030" points="70.4,104.1 39.8,104.1 39.8,81.1 70.4,91.9 			"/>
			<polygon fill="#303030" points="46.9,94.1 73,101.8 74.2,94.6 46.9,81.1 			"/>
		</g>
	</g>
	<polygon fill="#303030" points="46.9,0 38.6,0 33.9,6.6 	"/>
	<g>
		<g>
			<path fill="#303030" d="M20.2,127.4c0.7,18.5-7.6,37.4-7.6,37.4l27.2,32.3V91.9L2,102.5l-2,6.7l39.8-4.2v36.9L20.2,127.4z"/>
			<polygon fill="#303030" points="39.8,83.4 2,96.9 0,90.2 39.8,70.4 			"/>
		</g>
	</g>
	<line fill="none" x1="61.9" y1="7.9" x2="44.9" y2="12.3"/>
</g>
</svg>
